<?xml version="1.0" encoding="UTF-8"?>
<svg width="700px" height="133px" viewBox="0 0 700 133" version="1.1" xmlns="http://www.w3.org/2000/svg" xmlns:xlink="http://www.w3.org/1999/xlink">
    <title>Artboard</title>
    <g id="Artboard" stroke="none" stroke-width="1" fill="none" fill-rule="evenodd">
        <g id="svgexport-4-(1)" transform="translate(201, 19)" stroke-width="0.2">
            <path d="M34.8617974,21.7034042 L48.8481307,11.3257496 C32.4153844,-7.73515267 11.6019133,0.434668901 4.24107572,12.6695895 C-3.65181301,25.7886507 1.83225419,48.7732836 24.9384749,49.9807919 C48.0446956,51.1883003 37.7095158,89.0638013 14.0930074,66.8820473 L0,78.3305429 C45.4137877,120.276516 83.4354115,45.631277 33.1548481,33.7491059 C5.95000352,34.1146156 19.8881934,6.8074991 34.8617974,21.7034042 L34.8617974,21.7034042 Z" id="Path" stroke="#916CC1" fill="#916CC1"></path>
            <path d="M133.199036,32.5706711 L147.010129,22.6391329 C135.775097,0.518911195 91.7448047,-8.98963033 71.5538894,20.6526923 C59.6584507,38.1164623 58.4721514,63.2014809 78.9603175,81.4738771 C99.4484835,99.7462733 148.220593,92.6656035 154,52.1027573 L136.02013,51.895826 C131.503237,65.8406019 122.941603,74.0743405 110.292645,74.449009 C93.5947218,74.9435847 84.1134529,65.4373682 82.333328,50.4476393 C80.407197,34.227782 87.6214852,20.3939452 109.787369,18.9974083 C119.614388,18.3782753 127.453258,24.4508609 133.199036,32.5706711 L133.199036,32.5706711 Z" id="Path" stroke="#9069C0" fill="#9069C0"></path>
            <path d="M187.238095,25.9907835 C198.560661,13.425923 215.160747,14.8291982 225.865198,25.8226476 C235.789311,36.0143222 235.728913,53.9155525 226.694287,64.936066 C215.417477,78.6920865 196.451584,76.1336805 187.57003,66.1160621 C178.44955,55.8288173 176.642292,37.7496404 187.238095,25.9907835 L187.238095,25.9907835 Z M173.43525,15.4053258 C191.481208,-4.62043857 220.003673,-4.49019245 237.915359,12.1293821 C255.059186,28.0368317 254.797299,58.5917266 240.397802,76.156685 C222.42422,98.0815056 188.380318,93.3293827 174.225072,77.3634069 C159.688309,60.9674497 156.547154,34.1462207 173.43525,15.4053258 L173.43525,15.4053258 Z" id="Shape" stroke="#926CC1" fill="#926CC1"></path>
            <g id="_2455593801184" transform="translate(268, 2)" fill="#926CC1" stroke="#926CC1">
                <rect id="Rectangle" x="0" y="0" width="18.4300029" height="87"></rect>
                <rect id="Rectangle" x="14.8463532" y="55.4999193" width="23.0375037" height="16.1666647"></rect>
                <rect id="Rectangle" x="0" y="0" width="34.9828315" height="15.8332315"></rect>
                <path d="M34.9828315,0 C59.7836532,2.55542998 68.9832455,22.8062344 67.9177898,36.6666244 C66.7407036,51.978302 56.2000034,63.72221 47.7813115,67.0000231 L66.552541,86.3333007 L42.1499598,87 L28.4981565,71.666584 L33.9589805,55.4999193 C44.4366745,52.7232595 49.2165862,45.505449 49.4877869,35.1666763 C49.7952846,23.4468476 42.6639398,17.7783147 31.3991818,15.8332315 C20.1344238,13.8881483 34.9828315,0 34.9828315,0 L34.9828315,0 Z" id="Path"></path>
            </g>
            <polygon id="Path" stroke="#9977C0" fill="#9977C0" points="391.492414 18.4048013 391.411145 2.12281883 346 2 346.040716 89 399 88.9583947 399 73.0761559 363.65342 73.0761559 363.653095 51.0566368 395.672506 51.0568032 395.75345 34.9255983 363.653257 35.0500813 363.613356 18.3387321"></polygon>
            <polygon id="Path" stroke="#9D7CC2" fill="#9D7CC2" points="444.950246 31.3325309 462.875777 2.33247537 481.043697 2.33247537 456.093126 43.2149405 485 88.9171313 465.459737 88.9171313 444.796971 56.7740663 424.965875 89 407.484452 88.7508936 433.64599 43.8797245 407 2 426.701963 2.24927316"></polygon>
        </g>
        <g id="svgexport-3-(1)" transform="translate(163, 66) scale(-1, 1) translate(-163, -66)translate(161, 9)" fill="#926DBF" stroke="#926DBF" stroke-width="0.2">
            <rect id="Rectangle" x="0" y="0" width="4" height="114"></rect>
        </g>
        <g id="svgexport-1-(1)" transform="translate(11, 9)" fill="#9D77C3" stroke="#9D77C3" stroke-width="0.2">
            <path d="M0,88.1970753 L0.114750717,25.1557311 C0.136532609,13.2100754 12.4633909,-0.0071724112 23.9481799,2.9201927e-06 L90.2077662,0.0418150624 C101.797207,0.0490481122 114.044089,13.8574333 113.999881,25.4897665 L113.757212,88.8993387 C113.695142,105.124494 97.6691286,114.000003 91.8716516,114.000003 L22.6588994,114.000003 C9.65161623,111.540867 0.376406373,101.07974 0,88.1970753 L0,88.1970753 Z M5.23999161,85.3291163 L5.34420622,28.0831984 C5.36396824,17.2355964 16.5576223,5.23350094 26.9866719,5.24001899 L87.1550259,5.27794036 C97.6790642,5.28457066 108.800057,17.8235009 108.759824,28.3864934 L108.539548,85.966885 C108.483155,100.700388 93.9303406,108.759978 88.6658376,108.759978 L25.8158543,108.759978 C14.004337,106.526884 5.58173256,97.0274784 5.23999161,85.3291163 Z M55.2773094,51.3444674 C56.2169333,52.2475027 58.240138,51.9585643 59.168789,51.0439671 L74.9591319,35.4949374 C77.385711,33.1054556 81.0443592,36.5304143 78.6552842,39.0047749 L62.9459546,55.2745888 C62.0991904,56.1515961 61.8518922,58.0664365 62.7109941,58.9311695 L79.1749379,75.5067442 C81.0685976,77.4132556 77.4389375,81.0035333 75.5079373,79.1374065 L59.7097333,63.8709589 C57.7311842,61.9589132 56.2704872,61.8152933 54.4291804,63.7135305 L47.0453921,71.3253291 L39.2125911,78.9871563 C36.7383538,81.4073238 32.8700755,77.7657572 35.2712697,75.3064107 L51.1614053,59.0313363 C52.0343733,58.1371779 52.0281499,56.1755967 51.1614053,55.2754656 L35.2213734,38.7249873 C33.1766597,36.6019228 36.6044416,33.3968598 38.8134748,35.5199791 L55.2773094,51.3444674 Z M56.9010157,44.6410741 L71.819537,30.2338252 C78.9126271,26.206496 89.3552153,31.9863055 83.8736031,42.9688149 L69.5420464,57.1058655 C69.5420464,57.1058655 80.8865906,68.2033366 83.9997633,71.7766276 C92.065232,81.0342738 77.5083775,90.0762436 71.9058457,84.5318369 L57.0439355,69.8242521 C50.9706637,75.8959042 47.5757457,79.5094154 42.4864258,84.0781274 C32.3093692,90.3278112 24.4626475,77.647179 30.6666652,71.2102579 L44.4666672,56.8919426 C41.8752226,54.4827891 32.9716697,45.6696467 29.5839032,41.9560784 C25.2562944,34.1192333 33.3907664,25.4933282 42.061597,29.9635174 L56.9010157,44.6410741 L56.9010157,44.6410741 Z" id="Shape"></path>
        </g>
    </g>
</svg>