<?xml version="1.0" encoding="UTF-8"?>
<!DOCTYPE svg PUBLIC "-//W3C//DTD SVG 1.1//EN" "http://www.w3.org/Graphics/SVG/1.1/DTD/svg11.dtd">
<!-- Creator: CorelDRAW (Versión de evaluación) -->
<svg xmlns="http://www.w3.org/2000/svg" xml:space="preserve" width="210mm" height="210mm" version="1.1" style="shape-rendering:geometricPrecision; text-rendering:geometricPrecision; image-rendering:optimizeQuality; fill-rule:evenodd; clip-rule:evenodd"
viewBox="0 0 21000 21000"
 xmlns:xlink="http://www.w3.org/1999/xlink"
 xmlns:xodm="http://www.corel.com/coreldraw/odm/2003">
 <defs>
  <style type="text/css">
   <![CDATA[
    .str0 {stroke:#9D77C3;stroke-width:20;stroke-miterlimit:22.9256}
    .fil0 {fill:#9D77C3}
   ]]>
  </style>
 </defs>
 <g id="Capa_x0020_1">
  <metadata id="CorelCorpID_0Corel-Layer"/>
  <path class="fil0 str0" d="M66.44 16161.81l21.02 -11504.77c3.99,-2180.03 2262.02,-4592.12 4365.8,-4590.81l12137.41 7.63c2122.95,1.32 4366.33,2521.29 4358.21,4644.14l-44.43 11571.97c-11.37,2961.02 -2947.01,4580.76 -4008.99,4580.76l-12678.37 0c-2382.67,-448.78 -4081.7,-2357.89 -4150.65,-4708.92zm959.86 -523.39l19.09 -10447.13c3.62,-1979.64 2054.07,-4169.97 3964.46,-4168.78l11021.62 6.92c1927.79,1.21 3964.93,2289.51 3957.54,4217.21l-40.33 10508.17c-10.33,2688.8 -2676.11,4159.64 -3640.46,4159.64l-11512.84 0c-2163.63,-407.53 -3706.48,-2141.13 -3769.08,-4276.03zm9165.82 -6202.05c172.12,164.8 542.73,112.07 712.84,-54.84l2892.47 -2837.63c444.5,-436.07 1114.69,188.97 677.06,640.53l-2877.63 2969.17c-155.11,160.05 -200.41,509.5 -43.04,667.31l3015.86 3024.97c346.88,347.93 -318,1003.14 -671.72,662.58l-2893.91 -2786.06c-362.43,-348.94 -630,-375.15 -967.29,-28.73l-1352.56 1389.12 -1434.81 1398.25c-453.23,441.67 -1161.82,-222.9 -721.97,-671.72l2910.75 -2970.13c159.91,-163.18 158.77,-521.16 0,-685.43l-2919.89 -3020.39c-374.55,-387.45 253.35,-972.36 658,-584.9l3015.84 2887.9zm297.43 -1223.34l2732.77 -2629.26c1299.31,-734.97 3212.18,319.82 2208.06,2324.08l-2625.25 2579.95c0,0 2078.09,2025.24 2648.36,2677.35 1477.43,1689.48 -1189.09,3339.6 -2215.36,2327.77l-2722.4 -2684.07c-1112.5,1108.05 -1734.38,1767.5 -2666.64,2601.27 -1864.23,1140.54 -3301.59,-1173.62 -2165.14,-2348.33l2527.88 -2613.03c-474.7,-439.66 -2105.65,-2048.02 -2726.22,-2725.73 -792.73,-1430.19 697.34,-3004.38 2285.66,-2188.59l2718.28 2678.59z"/>
 </g>
</svg>
