<?xml version="1.0" encoding="UTF-8"?>
<!DOCTYPE svg PUBLIC "-//W3C//DTD SVG 1.1//EN" "http://www.w3.org/Graphics/SVG/1.1/DTD/svg11.dtd">
<!-- Creator: CorelDRAW (Versión de evaluación) -->
<svg xmlns="http://www.w3.org/2000/svg" xml:space="preserve" width="297mm" height="150mm" version="1.1" style="shape-rendering:geometricPrecision; text-rendering:geometricPrecision; image-rendering:optimizeQuality; fill-rule:evenodd; clip-rule:evenodd"
viewBox="0 0 29700 15000"
 xmlns:xlink="http://www.w3.org/1999/xlink"
 xmlns:xodm="http://www.corel.com/coreldraw/odm/2003">
 <defs>
  <style type="text/css">
   <![CDATA[
    .str1 {stroke:#9069C0;stroke-width:20;stroke-miterlimit:22.9256}
    .str0 {stroke:#916CC1;stroke-width:20;stroke-miterlimit:22.9256}
    .str2 {stroke:#926CC1;stroke-width:20;stroke-miterlimit:22.9256}
    .str3 {stroke:#926CC1;stroke-width:20;stroke-miterlimit:22.9256}
    .str4 {stroke:#9977C0;stroke-width:20;stroke-miterlimit:22.9256}
    .str5 {stroke:#9D7CC2;stroke-width:20;stroke-miterlimit:22.9256}
    .fil1 {fill:#9069C0}
    .fil0 {fill:#916CC1}
    .fil2 {fill:#926CC1}
    .fil3 {fill:#926CC1}
    .fil4 {fill:#9977C0}
    .fil5 {fill:#9D7CC2}
   ]]>
  </style>
 </defs>
 <g id="Capa_x0020_1">
  <metadata id="CorelCorpID_0Corel-Layer"/>
  <path class="fil0 str0" d="M2394.94 6241.5l848.3 -618.1c-996.68,-1135.28 -2259.06,-648.68 -2705.51,80.04 -478.72,781.38 -146.1,2150.36 1255.34,2222.28 1401.44,71.92 774.59,2327.81 -657.8,1006.65l-854.77 681.88c2754.44,2498.33 5060.53,-1947.59 2010.91,-2655.3 -1650.03,21.77 -804.65,-1604.66 103.53,-717.45z"/>
  <path class="fil1 str1" d="M8396.15 6804.48l817.28 -598.01c-664.84,-1331.93 -3270.36,-1904.47 -4465.17,-119.61 -703.92,1051.55 -774.12,2562 438.28,3662.24 1212.4,1100.24 4098.52,673.89 4440.52,-1768.53l-1063.97 -12.46c-267.29,839.66 -773.93,1335.44 -1522.44,1358 -988.11,29.78 -1549.17,-542.62 -1654.51,-1445.2 -113.98,-976.65 312.93,-1809.63 1624.61,-1893.72 581.52,-37.28 1045.39,328.37 1385.4,817.29z"/>
  <path class="fil2 str2" d="M11651.15 6480.49c680.51,-742.82 1678.21,-659.86 2321.57,-9.94 596.46,602.52 592.83,1660.82 49.83,2312.34 -677.76,813.24 -1817.65,661.99 -2351.45,69.76 -548.16,-608.17 -656.78,-1676.99 -19.95,-2372.16zm-829.58 -625.8c1084.6,-1183.9 2798.86,-1176.2 3875.39,-193.67 1030.38,940.43 1014.64,2746.8 149.2,3785.22 -1080.25,1296.17 -3126.36,1015.23 -3977.12,71.34 -873.69,-969.31 -1062.48,-2554.95 -47.47,-3662.89z"/>
  <g id="_2455593801184">
   <rect class="fil3 str3" x="16324.93" y="5055.23" width="1076.44" height="5202.78"/>
   <rect class="fil3 str3" x="17192.06" y="8374.24" width="1345.55" height="966.8"/>
   <rect class="fil3 str3" x="16324.93" y="5055.23" width="2043.24" height="946.86"/>
   <path class="fil3 str3" d="M18368.17 5055.23c1448.54,152.82 1985.86,1363.86 1923.63,2192.74 -68.75,915.67 -684.4,1617.98 -1176.11,1814l1096.37 1156.17 -1425.28 39.87 -797.36 -916.97 318.95 -966.8c611.97,-166.05 891.15,-597.69 906.99,-1215.97 17.96,-700.87 -398.56,-1039.86 -1056.5,-1156.18 -657.94,-116.32 209.31,-946.86 209.31,-946.86z"/>
  </g>
  <polygon class="fil4 str4" points="23847.53,6013.56 23842.54,5035.2 21054.27,5027.82 21056.77,10255.52 24308.5,10253.02 24308.5,9298.68 22138.2,9298.68 22138.18,7975.56 24104.19,7975.57 24109.16,7006.27 22138.19,7013.75 22135.74,6009.59 "/>
  <polygon class="fil5 str5" points="26974.71,6796.9 28081.06,5057.64 29202.37,5057.64 27662.44,7509.54 29446.55,10250.5 28240.54,10250.5 26965.25,8322.74 25741.29,10255.47 24662.35,10240.53 26277.02,7549.41 24632.45,5037.7 25848.44,5052.65 "/>
 </g>
</svg>
